<svg width="129" height="25" viewBox="0 0 129 25" fill="none" xmlns="http://www.w3.org/2000/svg">
<path d="M34.8011 24C41.4489 24 45.6676 19.9091 45.6676 13.0909C45.6676 6.27273 41.4489 2.18182 34.7159 2.18182H26.4062V24H34.8011ZM32.3295 18.9716V7.21023H34.4176C37.8267 7.21023 39.7017 8.53125 39.7017 13.0909C39.7017 17.6506 37.8267 18.9716 34.5881 18.9716H32.3295Z" fill="black"/>
<path d="M56.377 24.2983C61.7037 24.2983 64.8571 20.8892 64.8571 15.8608C64.8571 10.8324 61.7037 7.4233 56.377 7.4233C51.0502 7.4233 47.8968 10.8324 47.8968 15.8608C47.8968 20.8892 51.0502 24.2983 56.377 24.2983ZM56.4196 19.9517C54.8429 19.9517 53.9054 18.3857 53.9054 15.8182C53.9054 13.2507 54.8429 11.6847 56.4196 11.6847C57.911 11.6847 58.8485 13.2507 58.8485 15.8182C58.8485 18.3857 57.911 19.9517 56.4196 19.9517Z" fill="black"/>
<path d="M75.127 24.2983C79.9743 24.2983 82.9466 21.5178 83.0105 17.1818H77.5559C77.4281 18.897 76.5012 19.8239 75.2122 19.8239C73.6674 19.8239 72.6554 18.5028 72.6554 15.8182C72.6554 13.1335 73.6674 11.8125 75.2122 11.8125C76.5119 11.8125 77.3961 12.7393 77.5559 14.4545H83.0105C82.9785 10.1932 79.9423 7.4233 75.127 7.4233C69.8002 7.4233 66.6468 10.8324 66.6468 15.8608C66.6468 20.8892 69.8002 24.2983 75.127 24.2983Z" fill="black"/>
<path d="M93.3203 24.2983C98.1676 24.2983 101.14 21.5178 101.204 17.1818H95.7493C95.6215 18.897 94.6946 19.8239 93.4055 19.8239C91.8608 19.8239 90.8487 18.5028 90.8487 15.8182C90.8487 13.1335 91.8608 11.8125 93.4055 11.8125C94.7053 11.8125 95.5895 12.7393 95.7493 14.4545H101.204C101.172 10.1932 98.1357 7.4233 93.3203 7.4233C87.9936 7.4233 84.8402 10.8324 84.8402 15.8608C84.8402 20.8892 87.9936 24.2983 93.3203 24.2983Z" fill="black"/>
<path d="M103.63 24H109.511V7.63636H103.63V24ZM106.57 5.93182C108.168 5.93182 109.468 4.72798 109.468 3.24716C109.468 1.76633 108.168 0.5625 106.57 0.5625C104.972 0.5625 103.673 1.76633 103.673 3.24716C103.673 4.72798 104.972 5.93182 106.57 5.93182Z" fill="black"/>
<path d="M120.348 24.2983C124.886 24.2983 127.805 22.125 128.359 18.7159H122.99C122.649 19.6428 121.68 20.1648 120.476 20.1648C118.729 20.1648 117.706 19.0142 117.706 17.4375V17.1818H128.359V15.8182C128.359 10.6087 125.163 7.4233 120.22 7.4233C115.149 7.4233 111.911 10.7898 111.911 15.8608C111.911 21.1555 115.107 24.2983 120.348 24.2983ZM117.706 13.9432C117.738 12.5263 118.91 11.5568 120.348 11.5568C121.808 11.5568 122.915 12.5369 122.947 13.9432H117.706Z" fill="black"/>
<path d="M3.6 0H15.6C16.5548 0 17.4705 0.379285 18.1456 1.05442C18.8207 1.72955 19.2 2.64522 19.2 3.6V20.4C19.2 21.3548 18.8207 22.2705 18.1456 22.9456C17.4705 23.6207 16.5548 24 15.6 24H3.6C2.64522 24 1.72955 23.6207 1.05442 22.9456C0.379285 22.2705 0 21.3548 0 20.4L0 3.6C0 2.64522 0.379285 1.72955 1.05442 1.05442C1.72955 0.379285 2.64522 0 3.6 0V0ZM4.8 8.4C4.48174 8.4 4.17652 8.52643 3.95147 8.75147C3.72643 8.97652 3.6 9.28174 3.6 9.6C3.6 9.91826 3.72643 10.2235 3.95147 10.4485C4.17652 10.6736 4.48174 10.8 4.8 10.8H14.4C14.7183 10.8 15.0235 10.6736 15.2485 10.4485C15.4736 10.2235 15.6 9.91826 15.6 9.6C15.6 9.28174 15.4736 8.97652 15.2485 8.75147C15.0235 8.52643 14.7183 8.4 14.4 8.4H4.8ZM4.8 18C4.48174 18 4.17652 18.1264 3.95147 18.3515C3.72643 18.5765 3.6 18.8817 3.6 19.2C3.6 19.5183 3.72643 19.8235 3.95147 20.0485C4.17652 20.2736 4.48174 20.4 4.8 20.4H10.8C11.1183 20.4 11.4235 20.2736 11.6485 20.0485C11.8736 19.8235 12 19.5183 12 19.2C12 18.8817 11.8736 18.5765 11.6485 18.3515C11.4235 18.1264 11.1183 18 10.8 18H4.8ZM4.8 3.6C4.48174 3.6 4.17652 3.72643 3.95147 3.95147C3.72643 4.17652 3.6 4.48174 3.6 4.8C3.6 5.11826 3.72643 5.42348 3.95147 5.64853C4.17652 5.87357 4.48174 6 4.8 6H14.4C14.7183 6 15.0235 5.87357 15.2485 5.64853C15.4736 5.42348 15.6 5.11826 15.6 4.8C15.6 4.48174 15.4736 4.17652 15.2485 3.95147C15.0235 3.72643 14.7183 3.6 14.4 3.6H4.8ZM4.8 13.2C4.48174 13.2 4.17652 13.3264 3.95147 13.5515C3.72643 13.7765 3.6 14.0817 3.6 14.4C3.6 14.7183 3.72643 15.0235 3.95147 15.2485C4.17652 15.4736 4.48174 15.6 4.8 15.6H14.4C14.7183 15.6 15.0235 15.4736 15.2485 15.2485C15.4736 15.0235 15.6 14.7183 15.6 14.4C15.6 14.0817 15.4736 13.7765 15.2485 13.5515C15.0235 13.3264 14.7183 13.2 14.4 13.2H4.8Z" fill="url(#paint0_linear)"/>
<defs>
<linearGradient id="paint0_linear" x1="9.6" y1="-8.67844e-07" x2="46" y2="44" gradientUnits="userSpaceOnUse">
<stop stop-color="#30BBB2"/>
<stop offset="1" stop-color="#00A3FF"/>
</linearGradient>
</defs>
</svg>
