<?xml version="1.0" encoding="UTF-8"?>
<svg width="568px" height="67px" viewBox="0 0 568 67" version="1.1" xmlns="http://www.w3.org/2000/svg" xmlns:xlink="http://www.w3.org/1999/xlink">
    <title>Group</title>
    <g id="Page-1" stroke="none" stroke-width="1" fill="none" fill-rule="evenodd">
        <g id="Klanten---Toevoegen" transform="translate(-245.000000, -555.000000)" fill-rule="nonzero">
            <g id="Group" transform="translate(245.000000, 555.000000)">
                <path d="M66.107,55.113 C66.107,61.33 61.07,66.367 54.855,66.367 L11.733,66.367 C5.518,66.367 0.481,61.33 0.481,55.113 L0.481,11.99 C0.481,5.775 5.519,0.739 11.733,0.739 L54.855,0.739 C61.07,0.739 66.107,5.775 66.107,11.99 L66.107,55.113 L66.107,55.113 Z" id="Path" fill="#77BC1F"></path>
                <g transform="translate(249.000000, 18.000000)" fill="#616365">
                    <path d="M28.809,30.473 C28.205,31.444 27.455,32.343 26.566,33.173 C25.675,34.003 24.672,34.71 23.561,35.298 C22.449,35.884 21.252,36.339 19.977,36.663 C18.705,36.984 17.418,37.146 16.123,37.146 C13.936,37.146 11.914,36.771 10.056,36.025 C8.196,35.275 6.583,34.234 5.231,32.898 C3.875,31.562 2.813,29.984 2.044,28.165 C1.273,26.343 0.89,24.382 0.89,22.277 C0.89,20.173 1.263,18.21 2.011,16.388 C2.761,14.568 3.794,12.989 5.108,11.654 C6.422,10.319 7.994,9.276 9.813,8.528 C11.634,7.78 13.618,7.405 15.761,7.405 C18.269,7.405 20.587,7.973 22.71,9.104 C24.837,10.237 26.564,11.735 27.898,13.596 L23.65,17.178 C22.838,16.085 21.779,15.094 20.463,14.203 C19.148,13.314 17.577,12.868 15.758,12.868 C14.461,12.868 13.258,13.102 12.148,13.567 C11.035,14.032 10.075,14.69 9.262,15.54 C8.453,16.39 7.816,17.391 7.353,18.545 C6.887,19.698 6.654,20.941 6.654,22.278 C6.654,23.694 6.887,24.979 7.353,26.133 C7.816,27.285 8.473,28.266 9.327,29.076 C10.177,29.887 11.179,30.523 12.33,30.988 C13.482,31.453 14.749,31.687 16.124,31.687 C18.025,31.687 19.645,31.249 20.978,30.378 C22.314,29.509 23.447,28.466 24.377,27.251 L28.809,30.473 Z" id="Path"></path>
                    <path d="M62.198,30.473 C61.59,31.444 60.842,32.343 59.95,33.173 C59.058,34.003 58.056,34.71 56.946,35.298 C55.833,35.884 54.638,36.339 53.366,36.663 C52.092,36.984 50.804,37.146 49.512,37.146 C47.325,37.146 45.303,36.771 43.443,36.025 C41.582,35.275 39.973,34.234 38.617,32.898 C37.261,31.562 36.199,29.984 35.43,28.165 C34.659,26.343 34.277,24.382 34.277,22.277 C34.277,20.173 34.65,18.21 35.398,16.388 C36.148,14.568 37.18,12.989 38.494,11.654 C39.809,10.319 41.38,9.276 43.199,8.528 C45.02,7.78 47.005,7.405 49.15,7.405 C51.658,7.405 53.973,7.973 56.098,9.104 C58.223,10.237 59.952,11.735 61.286,13.596 L57.036,17.178 C56.226,16.085 55.165,15.094 53.849,14.203 C52.534,13.314 50.966,12.868 49.147,12.868 C47.849,12.868 46.647,13.102 45.534,13.567 C44.422,14.032 43.46,14.69 42.651,15.54 C41.839,16.39 41.204,17.391 40.739,18.545 C40.274,19.698 40.042,20.941 40.042,22.278 C40.042,23.694 40.274,24.979 40.739,26.133 C41.204,27.285 41.862,28.266 42.713,29.076 C43.564,29.886 44.566,30.523 45.717,30.988 C46.87,31.453 48.135,31.687 49.512,31.687 C51.411,31.687 53.033,31.249 54.366,30.378 C55.7,29.509 56.836,28.466 57.763,27.251 L62.198,30.473 Z" id="Path"></path>
                    <path d="M67.66,22.277 C67.66,20.173 68.031,18.21 68.781,16.388 C69.531,14.568 70.562,12.989 71.878,11.654 C73.193,10.319 74.75,9.276 76.552,8.528 C78.353,7.78 80.306,7.405 82.408,7.405 C84.512,7.405 86.464,7.78 88.264,8.528 C90.066,9.277 91.621,10.319 92.939,11.654 C94.252,12.989 95.287,14.568 96.037,16.388 C96.783,18.209 97.158,20.172 97.158,22.277 C97.158,24.421 96.783,26.395 96.037,28.194 C95.287,29.997 94.255,31.563 92.939,32.901 C91.623,34.237 90.066,35.278 88.264,36.028 C86.461,36.774 84.512,37.149 82.408,37.149 C80.304,37.149 78.35,36.774 76.552,36.028 C74.751,35.278 73.196,34.237 71.878,32.901 C70.565,31.563 69.531,29.997 68.781,28.194 C68.031,26.393 67.66,24.421 67.66,22.277 Z M73.427,22.277 C73.427,23.57 73.651,24.796 74.093,25.948 C74.539,27.101 75.156,28.101 75.946,28.954 C76.735,29.805 77.675,30.473 78.767,30.958 C79.86,31.441 81.075,31.687 82.411,31.687 C83.747,31.687 84.963,31.443 86.055,30.958 C87.148,30.473 88.086,29.805 88.877,28.954 C89.667,28.101 90.282,27.101 90.729,25.948 C91.172,24.796 91.397,23.57 91.397,22.277 C91.397,20.982 91.172,19.756 90.729,18.604 C90.285,17.45 89.667,16.45 88.877,15.6 C88.086,14.75 87.147,14.082 86.055,13.596 C84.963,13.111 83.747,12.867 82.411,12.867 C81.075,12.867 79.86,13.111 78.767,13.596 C77.675,14.082 76.735,14.75 75.946,15.6 C75.159,16.45 74.543,17.45 74.093,18.604 C73.649,19.757 73.427,20.982 73.427,22.277 Z" id="Shape"></path>
                    <path d="M117.19,37.148 C115.126,37.148 113.212,36.722 111.454,35.875 C109.694,35.023 108.225,33.852 107.055,32.354 C106.163,31.262 105.508,29.967 105.081,28.469 C104.657,26.971 104.442,25.008 104.442,22.582 L104.442,8.013 L110.211,8.013 L110.211,23.493 C110.211,24.95 110.355,26.114 110.635,26.982 C110.92,27.851 111.323,28.588 111.85,29.198 C112.496,29.968 113.305,30.575 114.279,31.017 C115.253,31.463 116.283,31.687 117.378,31.687 C119.154,31.687 120.734,31.25 122.109,30.379 C123.484,29.511 124.578,28.588 125.387,27.617 L125.387,8.01 L131.154,8.01 L131.154,36.539 L125.57,36.539 L125.57,33.931 C125.246,34.254 124.809,34.599 124.264,34.963 C123.717,35.326 123.088,35.67 122.383,35.994 C121.674,36.319 120.874,36.592 119.986,36.811 C119.093,37.037 118.16,37.148 117.19,37.148 Z" id="Path"></path>
                    <path d="M147.053,10.744 C147.822,10.015 148.926,9.276 150.365,8.528 C151.802,7.78 153.552,7.405 155.615,7.405 C157.719,7.405 159.67,7.86 161.469,8.77 C163.27,9.681 164.781,10.906 165.991,12.442 C166.924,13.617 167.62,14.982 168.086,16.539 C168.551,18.098 168.784,20.111 168.784,22.58 L168.784,36.539 L163.015,36.539 L163.015,22.276 C163.015,20.454 162.866,19.058 162.56,18.087 C162.257,17.115 161.841,16.307 161.316,15.659 C160.628,14.809 159.769,14.131 158.736,13.625 C157.706,13.12 156.603,12.866 155.427,12.866 C153.525,12.866 151.898,13.283 150.541,14.111 C149.185,14.941 148.082,15.882 147.229,16.933 L147.229,36.539 L141.463,36.539 L141.463,8.01 L147.047,8.01 L147.047,10.744 L147.053,10.744 L147.053,10.744 Z" id="Path"></path>
                    <path d="M222.686,33.932 C221.51,34.985 220.176,35.785 218.678,36.329 C217.18,36.873 215.581,37.146 213.883,37.146 C212.59,37.146 211.316,36.974 210.061,36.631 C208.805,36.287 207.695,35.832 206.721,35.265 C204.536,33.972 202.777,32.2 201.443,29.953 C200.104,27.707 199.438,25.145 199.438,22.274 C199.438,19.4 200.117,16.832 201.469,14.565 C202.825,12.298 204.598,10.519 206.782,9.223 C207.752,8.657 208.823,8.212 209.999,7.887 C211.172,7.564 212.428,7.402 213.762,7.402 C215.381,7.402 216.95,7.655 218.467,8.16 C219.983,8.666 221.391,9.486 222.686,10.619 L222.686,8.008 L228.272,8.008 L228.272,36.537 L222.686,36.537 L222.686,33.932 L222.686,33.932 Z M222.505,16.935 C221.613,15.763 220.472,14.791 219.072,14.022 C217.676,13.254 216.107,12.868 214.369,12.868 C212.992,12.868 211.738,13.122 210.607,13.627 C209.471,14.133 208.51,14.821 207.721,15.691 C206.932,16.561 206.314,17.564 205.868,18.696 C205.424,19.828 205.2,21.022 205.2,22.277 C205.2,23.57 205.433,24.786 205.899,25.919 C206.362,27.052 207.019,28.044 207.872,28.895 C208.723,29.746 209.723,30.421 210.877,30.928 C212.028,31.434 213.295,31.688 214.67,31.688 C216.127,31.688 217.555,31.334 218.95,30.626 C220.346,29.917 221.528,28.915 222.502,27.62 L222.505,16.935 L222.505,16.935 Z" id="Shape"></path>
                    <path d="M244.175,10.744 C244.944,10.015 246.046,9.276 247.485,8.528 C248.922,7.78 250.672,7.405 252.735,7.405 C254.839,7.405 256.793,7.86 258.591,8.77 C260.392,9.681 261.901,10.906 263.113,12.442 C264.044,13.617 264.74,14.982 265.207,16.539 C265.671,18.098 265.904,20.111 265.904,22.58 L265.904,36.539 L260.137,36.539 L260.137,22.276 C260.137,20.454 259.986,19.058 259.682,18.087 C259.377,17.115 258.961,16.307 258.437,15.659 C257.749,14.809 256.889,14.131 255.857,13.625 C254.826,13.12 253.721,12.866 252.549,12.866 C250.646,12.866 249.018,13.283 247.659,14.111 C246.305,14.941 245.203,15.882 244.351,16.933 L244.351,36.539 L238.585,36.539 L238.585,8.01 L244.169,8.01 L244.169,10.744 L244.175,10.744 L244.175,10.744 Z" id="Path"></path>
                    <path d="M290.789,36.541 C290.224,36.744 289.535,36.896 288.726,36.996 C287.916,37.1 287.11,37.148 286.3,37.148 C284.478,37.148 282.908,36.855 281.595,36.267 C280.28,35.681 279.157,34.863 278.226,33.808 C277.375,32.878 276.782,31.767 276.437,30.472 C276.093,29.175 275.918,27.759 275.918,26.222 L275.918,13.17 L272.275,13.17 L272.275,8.01 L275.918,8.01 L275.918,0.119 L281.685,0.119 L281.685,8.01 L289.579,8.01 L289.579,13.17 L281.685,13.17 L281.685,26.524 C281.685,27.295 281.737,27.981 281.838,28.587 C281.939,29.193 282.172,29.721 282.535,30.165 C282.939,30.65 283.507,31.025 284.234,31.288 C284.963,31.552 285.711,31.684 286.48,31.684 C286.922,31.684 287.451,31.653 288.057,31.592 C288.663,31.531 289.191,31.44 289.633,31.319 L290.789,36.541 Z" id="Path"></path>
                    <path d="M193.973,36.541 C193.408,36.744 192.719,36.896 191.911,36.996 C191.099,37.1 190.292,37.148 189.481,37.148 C187.661,37.148 186.091,36.855 184.778,36.267 C183.465,35.681 182.34,34.863 181.411,33.808 C180.558,32.878 179.963,31.767 179.618,30.472 C179.274,29.175 179.101,27.759 179.101,26.222 L179.101,13.17 L175.458,13.17 L175.458,8.01 L179.101,8.01 L179.101,0.119 L184.868,0.119 L184.868,8.01 L192.762,8.01 L192.762,13.17 L184.868,13.17 L184.868,26.524 C184.868,27.295 184.92,27.981 185.019,28.587 C185.12,29.193 185.355,29.721 185.718,30.165 C186.121,30.65 186.687,31.025 187.414,31.288 C188.143,31.552 188.893,31.684 189.662,31.684 C190.106,31.684 190.634,31.653 191.238,31.592 C191.844,31.531 192.371,31.44 192.818,31.319 L193.973,36.541 Z" id="Path"></path>
                    <path d="M299.229,28.955 C301.938,31.059 304.752,32.111 307.666,32.111 C308.923,32.111 310.063,31.799 311.097,31.17 C312.13,30.543 312.646,29.664 312.646,28.529 C312.646,27.72 312.374,27.072 311.829,26.588 C311.282,26.102 310.583,25.707 309.733,25.404 C308.884,25.099 307.931,24.826 306.88,24.584 C305.826,24.342 304.776,24.039 303.724,23.674 C302.873,23.391 302.054,23.037 301.265,22.611 C300.476,22.186 299.78,21.67 299.171,21.063 C298.567,20.456 298.076,19.769 297.714,19 C297.349,18.23 297.166,17.342 297.166,16.33 C297.166,14.791 297.478,13.467 298.107,12.353 C298.732,11.24 299.543,10.319 300.535,9.591 C301.527,8.863 302.648,8.316 303.902,7.952 C305.158,7.587 306.43,7.406 307.727,7.406 C309.831,7.406 311.652,7.7 313.191,8.286 C314.727,8.873 316.061,9.632 317.197,10.562 L314.221,14.689 C313.329,14.002 312.379,13.455 311.368,13.05 C310.356,12.646 309.264,12.443 308.09,12.443 C306.674,12.443 305.461,12.757 304.446,13.384 C303.433,14.013 302.929,14.892 302.929,16.025 C302.929,16.995 303.423,17.704 304.415,18.15 C305.404,18.595 306.609,19 308.025,19.364 C309.158,19.647 310.333,20.002 311.546,20.426 C312.761,20.852 313.874,21.408 314.886,22.096 C315.897,22.784 316.739,23.642 317.405,24.678 C318.075,25.708 318.407,26.952 318.407,28.409 C318.407,29.745 318.114,30.96 317.53,32.053 C316.94,33.147 316.164,34.067 315.19,34.815 C314.218,35.565 313.086,36.141 311.793,36.544 C310.496,36.95 309.162,37.15 307.787,37.15 C303.334,37.15 299.489,35.838 296.254,33.206 L299.229,28.955 Z" id="Path"></path>
                </g>
                <g transform="translate(137.000000, 25.000000)" fill="#77BC1F">
                    <path d="M6.513,3.774 C7.283,3.045 8.385,2.307 9.822,1.558 C11.259,0.81 13.009,0.435 15.072,0.435 C17.176,0.435 19.13,0.89 20.929,1.8 C22.729,2.711 24.239,3.936 25.452,5.472 C26.382,6.647 27.081,8.012 27.546,9.57 C28.011,11.128 28.245,13.141 28.245,15.61 L28.245,29.57 L22.476,29.57 L22.476,15.307 C22.476,13.485 22.322,12.089 22.019,11.118 C21.716,10.147 21.301,9.339 20.775,8.69 C20.087,7.841 19.228,7.163 18.195,6.656 C17.165,6.152 16.06,5.898 14.888,5.898 C12.984,5.898 11.357,6.314 10.001,7.142 C8.646,7.972 7.543,8.913 6.691,9.966 L6.691,29.572 L0.925,29.572 L0.925,1.042 L6.509,1.042 L6.509,3.774 L6.513,3.774 L6.513,3.774 Z" id="Path"></path>
                    <path d="M41.112,16.521 C41.192,17.734 41.485,18.859 41.991,19.89 C42.498,20.919 43.155,21.829 43.965,22.619 C44.777,23.41 45.725,24.025 46.819,24.473 C47.912,24.916 49.086,25.141 50.34,25.141 C52.443,25.141 54.135,24.727 55.407,23.897 C56.679,23.069 57.72,22.188 58.535,21.254 L62.297,24.836 C61.244,26.213 59.707,27.445 57.684,28.537 C55.663,29.631 53.193,30.176 50.279,30.176 C48.217,30.176 46.283,29.803 44.484,29.055 C42.682,28.307 41.115,27.276 39.779,25.959 C38.445,24.647 37.402,23.076 36.652,21.254 C35.904,19.436 35.531,17.451 35.531,15.306 C35.531,13.16 35.876,11.177 36.561,9.357 C37.249,7.536 38.209,5.968 39.447,4.653 C40.678,3.338 42.145,2.305 43.846,1.556 C45.543,0.808 47.406,0.433 49.43,0.433 C51.41,0.433 53.242,0.808 54.922,1.556 C56.602,2.305 58.047,3.348 59.262,4.682 C60.477,6.017 61.428,7.596 62.116,9.417 C62.804,11.237 63.146,13.2 63.146,15.306 C63.146,15.426 63.146,15.587 63.146,15.79 C63.146,15.993 63.126,16.234 63.087,16.519 L41.111,16.519 L41.111,16.521 L41.112,16.521 Z M49.61,5.473 C47.748,5.473 46.069,6.041 44.573,7.173 C43.073,8.306 42.084,9.804 41.595,11.665 L57.134,11.665 C56.933,10.774 56.577,9.944 56.072,9.176 C55.566,8.408 54.977,7.75 54.311,7.203 C53.641,6.656 52.904,6.232 52.094,5.928 C51.29,5.625 50.458,5.473 49.61,5.473 Z" id="Shape"></path>
                </g>
                <path d="M87.238,33.207 C87.238,30.103 87.791,27.201 88.891,24.504 C89.995,21.807 91.506,19.47 93.427,17.486 C95.346,15.506 97.615,13.954 100.23,12.828 C102.844,11.706 105.665,11.143 108.688,11.143 C111.71,11.143 114.531,11.705 117.146,12.828 C119.758,13.954 122.026,15.506 123.95,17.486 C125.869,19.47 127.382,21.807 128.484,24.504 C129.587,27.201 130.138,30.102 130.138,33.207 C130.138,36.354 129.585,39.265 128.484,41.939 C127.38,44.617 125.869,46.945 123.95,48.925 C122.026,50.907 119.76,52.46 117.146,53.583 C114.531,54.706 111.71,55.271 108.688,55.271 C105.665,55.271 102.844,54.709 100.23,53.583 C97.615,52.46 95.346,50.907 93.427,48.925 C91.506,46.945 89.994,44.614 88.891,41.939 C87.789,39.265 87.238,36.354 87.238,33.207 Z M93.365,33.207 C93.365,35.536 93.754,37.692 94.531,39.671 C95.306,41.656 96.38,43.371 97.75,44.822 C99.115,46.271 100.73,47.406 102.591,48.224 C104.448,49.038 106.482,49.449 108.69,49.449 C110.896,49.449 112.929,49.041 114.79,48.224 C116.646,47.406 118.261,46.271 119.63,44.822 C120.999,43.371 122.07,41.656 122.848,39.671 C123.623,37.692 124.013,35.535 124.013,33.207 C124.013,30.878 123.623,28.724 122.848,26.742 C122.072,24.76 120.999,23.045 119.63,21.593 C118.261,20.144 116.648,19.009 114.79,18.192 C112.931,17.375 110.896,16.966 108.69,16.966 C106.482,16.966 104.451,17.374 102.591,18.192 C100.732,19.009 99.116,20.145 97.75,21.593 C96.38,23.045 95.308,24.76 94.531,26.742 C93.752,28.723 93.365,30.877 93.365,33.207 Z" id="Shape" fill="#77BC1F"></path>
                <path d="M235.151,43.611 L217.28,43.611 L212.858,54.511 L206.556,54.511 L224.124,12.108 L228.366,12.108 L245.928,54.511 L239.631,54.511 L235.151,43.611 Z M219.704,37.856 L232.79,37.856 L226.245,22.105 L219.704,37.856 Z" id="Shape" fill="#616365"></path>
                <g transform="translate(13.000000, 12.000000)" fill="#FFFFFF" id="Path">
                    <polygon points="11.204 32.266 20.293 10.345 26.23 24.7 32.502 24.7 22.414 0.35 18.175 0.35 4.953 32.266"></polygon>
                    <polygon points="0.606 42.755 3.044 36.873 31.269 36.884 28.135 29.309 34.41 29.309 39.981 42.755"></polygon>
                </g>
            </g>
        </g>
    </g>
</svg>