<svg width="96" height="120" viewBox="0 0 96 120" fill="none" xmlns="http://www.w3.org/2000/svg">
<path d="M18 0H78C82.7739 0 87.3523 1.89642 90.7279 5.27208C94.1036 8.64773 96 13.2261 96 18V102C96 106.774 94.1036 111.352 90.7279 114.728C87.3523 118.104 82.7739 120 78 120H18C13.2261 120 8.64773 118.104 5.27208 114.728C1.89642 111.352 0 106.774 0 102L0 18C0 13.2261 1.89642 8.64773 5.27208 5.27208C8.64773 1.89642 13.2261 0 18 0V0ZM24 42C22.4087 42 20.8826 42.6321 19.7574 43.7574C18.6321 44.8826 18 46.4087 18 48C18 49.5913 18.6321 51.1174 19.7574 52.2426C20.8826 53.3679 22.4087 54 24 54H72C73.5913 54 75.1174 53.3679 76.2426 52.2426C77.3679 51.1174 78 49.5913 78 48C78 46.4087 77.3679 44.8826 76.2426 43.7574C75.1174 42.6321 73.5913 42 72 42H24ZM24 90C22.4087 90 20.8826 90.6321 19.7574 91.7574C18.6321 92.8826 18 94.4087 18 96C18 97.5913 18.6321 99.1174 19.7574 100.243C20.8826 101.368 22.4087 102 24 102H54C55.5913 102 57.1174 101.368 58.2426 100.243C59.3679 99.1174 60 97.5913 60 96C60 94.4087 59.3679 92.8826 58.2426 91.7574C57.1174 90.6321 55.5913 90 54 90H24ZM24 18C22.4087 18 20.8826 18.6321 19.7574 19.7574C18.6321 20.8826 18 22.4087 18 24C18 25.5913 18.6321 27.1174 19.7574 28.2426C20.8826 29.3679 22.4087 30 24 30H72C73.5913 30 75.1174 29.3679 76.2426 28.2426C77.3679 27.1174 78 25.5913 78 24C78 22.4087 77.3679 20.8826 76.2426 19.7574C75.1174 18.6321 73.5913 18 72 18H24ZM24 66C22.4087 66 20.8826 66.6321 19.7574 67.7574C18.6321 68.8826 18 70.4087 18 72C18 73.5913 18.6321 75.1174 19.7574 76.2426C20.8826 77.3679 22.4087 78 24 78H72C73.5913 78 75.1174 77.3679 76.2426 76.2426C77.3679 75.1174 78 73.5913 78 72C78 70.4087 77.3679 68.8826 76.2426 67.7574C75.1174 66.6321 73.5913 66 72 66H24Z" fill="url(#paint0_linear)"/>
<defs>
<linearGradient id="paint0_linear" x1="48" y1="-4.33922e-06" x2="230" y2="220" gradientUnits="userSpaceOnUse">
<stop stop-color="#30BBB2"/>
<stop offset="1" stop-color="#00A3FF"/>
</linearGradient>
</defs>
</svg>
